<?xml version="1.0" encoding="utf-8"?>
<!-- Generator: Adobe Illustrator 28.1.0, SVG Export Plug-In . SVG Version: 6.00 Build 0)  -->
<svg version="1.1" id="Layer_1" xmlns="http://www.w3.org/2000/svg" xmlns:xlink="http://www.w3.org/1999/xlink" x="0px" y="0px"
	 viewBox="0 0 1430.1 294.4" style="enable-background:new 0 0 1430.1 294.4;" xml:space="preserve">
<g>
	<path d="M0,0h128.4c30.1,0,53.9,5.8,71.3,17.3c17.4,11.5,26.1,30.1,26.1,55.8c0,13.9-3,25.2-8.9,34.1C211,116,204.4,122.9,197,128
		c-8.6,6.2-18.2,10.8-28.8,13.7v2.2c9.1,1.5,17.3,4.7,24.4,9.7c6.2,4.1,11.8,10.5,16.8,19c5,8.6,7.5,20.4,7.5,35.4v35.4
		c0,13.3,1.5,22.8,4.4,28.6c2.9,5.8,6.6,10.3,11.1,13.5v2.2h-42.1c-2.1-1.5-3.8-4.1-5.3-8c-1.5-3.2-2.8-7.7-4-13.5
		c-1.2-5.8-1.8-13.4-1.8-22.8v-26.6c0-11.5-1.3-21-3.8-28.6c-2.5-7.5-6.5-13.4-12-17.7c-5.5-4.3-12.4-7.2-20.8-8.9
		c-8.4-1.6-18.4-2.4-29.9-2.4H37.6v128.4H0V0z M37.6,130.6h84.1c20.1,0,35.8-4.5,47.2-13.5c11.4-9,17-22.9,17-41.8
		c0-16.8-5.3-28.8-15.9-35.9c-10.6-7.1-26-10.6-46-10.6H37.6V130.6z"/>
	<path d="M241.3,177.1c0-15.9,2.2-31.1,6.6-45.4c4.4-14.3,11.1-26.8,19.9-37.4c8.9-10.6,19.9-19,33.2-25.2
		c13.3-6.2,28.8-9.3,46.5-9.3c18.3,0,33.9,3.2,46.7,9.5c12.8,6.4,23.4,14.6,31.7,24.8c8.3,10.2,14.2,21.8,17.9,34.8
		c3.7,13,5.5,26.1,5.5,39.4V186H281.1c1.5,28.9,8.8,49.8,21.9,62.6c13.1,12.8,28.7,19.3,46.7,19.3c14.5,0,27.2-3.8,38.3-11.5
		c11.1-7.7,18.2-19.3,21.5-35h37.6c-4.4,21.3-14.8,38.7-31.2,52.5c-16.4,13.7-38.5,20.6-66.2,20.6c-18.3,0-34.2-3.1-47.8-9.3
		c-13.6-6.2-24.9-14.6-33.9-25.2c-9-10.6-15.7-23.1-20.1-37.4C243.5,208.2,241.3,193,241.3,177.1z M409.5,159.4
		c0-25.4-6.1-43.9-18.4-55.6c-12.3-11.7-26.8-17.5-43.6-17.5c-17.1,0-31.7,5.8-43.8,17.3c-12.1,11.5-19.3,30.1-21.7,55.8H409.5z"/>
	<path d="M606.6,0c12.7,0,24.7,1.5,36.1,4.6c11.4,3.1,21.3,7.9,29.7,14.4c8.4,6.5,15.1,14.8,19.9,24.8c4.9,10,7.3,22,7.3,35.9
		c0,13.9-2.4,25.8-7.3,35.9c-4.9,10-11.5,18.3-19.9,24.8c-8.4,6.5-18.3,11.3-29.7,14.4c-11.4,3.1-23.4,4.6-36.1,4.6h-93v128.4H476V0
		H606.6z M513.6,130.6h90.8c15.6,0,28.8-4.1,39.4-12.2c10.6-8.1,15.9-21,15.9-38.7c0-17.7-5.3-30.6-15.9-38.7
		c-10.6-8.1-23.8-12.2-39.4-12.2h-90.8V130.6z"/>
	<path d="M706.2,228c0-9.4,1.7-18.3,5.1-26.6c3.4-8.3,8.9-15.5,16.6-21.7c7.7-6.2,17.9-11.1,30.5-14.8c12.7-3.7,28.5-5.5,47.4-5.5
		c12.7,0,22.7-1,30.1-3.1c7.4-2.1,12.9-4.7,16.6-8c3.7-3.2,6-7,7.1-11.3c1-4.3,1.5-8.6,1.5-13.1c0-13.3-4.8-22.9-14.4-28.8
		c-9.6-5.9-23.2-8.9-41-8.9c-38.4,0-57.6,15.5-57.6,46.5h-37.6c0-12.7,2.4-23.6,7.1-32.8c4.7-9.1,11.3-16.7,19.7-22.8
		c8.4-6,18.4-10.5,30.1-13.3c11.7-2.8,24.4-4.2,38.3-4.2c30.1,0,53.1,5.8,69.1,17.3s23.9,30.1,23.9,55.8v101.8c0,4.4,0.1,8.4,0.4,12
		c0.3,3.5,1.1,6.5,2.4,8.9c1.3,2.4,3.5,4.1,6.4,5.1c2.9,1,7.2,1.3,12.8,0.7v26.6c-2.1,0.3-4.1,0.7-6.2,1.3c-2.1,0.3-4.3,0.5-6.6,0.7
		c-2.4,0.1-4.7,0.2-7.1,0.2c-5.6,0-10.8-0.4-15.7-1.1c-4.9-0.7-9.1-2.3-12.6-4.6c-3.5-2.4-6.4-5.8-8.4-10.2
		c-2.1-4.4-3.1-10.2-3.1-17.3v-6.6c-4.7,8.3-10.8,15.6-18.2,22.1c-6.2,5.6-14.1,10.7-23.7,15.3c-9.6,4.6-21.5,6.9-35.6,6.9
		c-25.7,0-45-6.4-58-19C712.7,262.7,706.2,246.9,706.2,228z M792.5,267.9c7.7,0,15.6-1.5,23.7-4.4c8.1-2.9,15.5-7.9,22.1-14.8
		c6.6-6.9,12.1-16.1,16.4-27.5c4.3-11.4,6.4-25.3,6.4-41.8v-15.1c0,0.3-0.8,1.3-2.4,3.1c-1.6,1.8-4.6,3.7-9.1,5.8
		c-4.4,2.1-10.5,4-18.2,5.8c-7.7,1.8-17.7,2.7-30.1,2.7c-6.2,0-12.5,0.7-19,2c-6.5,1.3-12.4,3.5-17.7,6.6
		c-5.3,3.1-9.7,7.4-13.3,12.8c-3.5,5.5-5.3,12.3-5.3,20.6c0,13.3,4.1,24,12.4,32.1C766.7,263.8,778.1,267.9,792.5,267.9z"/>
	<path d="M940.8,66.4h37.6v39.8c5.9-8.6,12.7-16.4,20.4-23.5c6.8-5.9,14.9-11.2,24.4-15.9c9.4-4.7,20.4-7.1,32.8-7.1
		c22.1,0,40.2,6.3,54.2,18.8c14,12.5,21,32.1,21,58.7v150.5h-37.6V146.1c0-20.1-4.5-34.7-13.5-43.8c-9-9.1-20.7-13.7-35.2-13.7
		c-8.9,0-17.3,1.5-25.2,4.6c-8,3.1-15.1,7.8-21.3,14.2c-6.2,6.4-11.1,14.4-14.6,24.1c-3.5,9.7-5.3,21.3-5.3,34.5v121.8h-37.6V66.4z"
		/>
	<path d="M1157.8,177.1c0-15.9,2.2-31.1,6.6-45.4c4.4-14.3,11.1-26.8,19.9-37.4c8.9-10.6,19.9-19,33.2-25.2
		c13.3-6.2,28.8-9.3,46.5-9.3c18.3,0,33.9,3.2,46.7,9.5c12.8,6.4,23.4,14.6,31.7,24.8c8.3,10.2,14.2,21.8,17.9,34.8
		c3.7,13,5.5,26.1,5.5,39.4V186h-168.2c1.5,28.9,8.8,49.8,21.9,62.6c13.1,12.8,28.7,19.3,46.7,19.3c14.5,0,27.2-3.8,38.3-11.5
		c11.1-7.7,18.2-19.3,21.5-35h37.6c-4.4,21.3-14.8,38.7-31.2,52.5c-16.4,13.7-38.5,20.6-66.2,20.6c-18.3,0-34.2-3.1-47.8-9.3
		c-13.6-6.2-24.9-14.6-33.9-25.2c-9-10.6-15.7-23.1-20.1-37.4C1160,208.2,1157.8,193,1157.8,177.1z M1326,159.4
		c0-25.4-6.1-43.9-18.4-55.6c-12.3-11.7-26.8-17.5-43.6-17.5c-17.1,0-31.7,5.8-43.8,17.3c-12.1,11.5-19.3,30.1-21.7,55.8H1326z"/>
	<path d="M1392.4,287.8V0h37.6v287.8H1392.4z"/>
</g>
</svg>
