<svg width="689" height="680" viewBox="0 0 689 680" fill="none" xmlns="http://www.w3.org/2000/svg">
<g clip-path="url(#clip0_12_13)">
<path d="M670.283 519.321L594.585 544.525C607.115 523.525 618.078 500.943 625.908 475.739C639.481 434.255 646.268 389.098 646.268 340.264C646.268 291.43 639.481 246.271 625.908 204.788C612.334 163.306 592.495 127.074 566.394 96.618C540.294 66.1622 507.407 42.533 468.25 25.7298C429.097 8.9267 384.202 0 333.042 0C301.198 0 271.442 3.15059 244.296 9.97687L262.568 70.8884C285.016 63.5369 308.506 59.8614 333.042 59.8614C364.365 59.8614 393.078 65.6373 420.746 76.6644C447.894 88.2167 471.383 105.02 491.743 128.124C512.104 151.228 527.763 180.109 539.247 215.815C550.735 250.997 556.475 292.48 556.475 339.739C556.475 386.998 550.735 428.481 539.247 463.664C534.55 477.841 528.81 490.966 523.066 503.57L498.009 428.481L443.718 446.859L506.36 634.32L688.553 574.458L670.804 519.321H670.283Z" fill="#171513"/>
<path d="M333.061 619.614C301.738 619.614 272.504 613.836 245.358 602.81C218.212 591.258 194.721 574.454 174.361 551.352C154.002 528.246 138.34 499.366 126.856 463.659C115.371 428.478 109.627 386.995 109.627 339.736C109.627 292.477 115.371 250.994 126.856 215.812C135.73 188.507 147.214 164.878 161.831 144.924L185.324 224.214L240.66 207.411L184.28 17.8504L0 71.4103L16.1831 127.071L93.9667 104.492C70.997 132.847 53.2482 165.928 40.7191 204.261C27.146 245.743 20.3588 290.902 20.3588 339.736C20.3588 388.57 27.146 433.73 40.7191 475.21C54.2923 516.694 74.1288 552.925 100.231 583.383C126.333 613.836 159.222 637.467 198.375 654.271C237.528 671.071 282.423 680 333.583 680C374.824 680 412.411 674.222 445.821 663.196L427.029 601.761C399.883 613.312 364.906 620.138 334.105 620.138L333.061 619.614Z" fill="#171513"/>
</g>
<defs>
<clipPath id="clip0_12_13">
<rect width="688.553" height="680" fill="white"/>
</clipPath>
</defs>
</svg>
