<?xml version="1.0" encoding="utf-8"?>
<!-- Generator: Adobe Illustrator 28.1.0, SVG Export Plug-In . SVG Version: 6.00 Build 0)  -->
<svg version="1.1" xmlns="http://www.w3.org/2000/svg" xmlns:xlink="http://www.w3.org/1999/xlink" x="0px" y="0px"
	 viewBox="0 0 1429.3 49" style="enable-background:new 0 0 1429.3 49;" xml:space="preserve">
<g id="Layer_1">
</g>
<g id="_x3C_Layer_x3E_">
	<g>
		<path d="M0,47.9V1.1h40.3v46.8h-9.7V9H9.7v38.9H0z"/>
		<path d="M60.9,1.1h10.8l18,46.8H78.9l-3.7-10.4H57.3l-3.7,10.4H42.9L60.9,1.1z M72.4,29.5l-6.1-17.3l-6.1,17.3H72.4z"/>
		<path d="M92.2,47.9V1.1h9.7v19.4h20.9V1.1h9.7v46.8h-9.7V28.4h-20.9v19.4H92.2z"/>
		<path d="M136.8,47.9V1.1h38.5V9h-28.8v11.5H170v7.9h-23.4V40h28.8v7.9H136.8z"/>
		<path d="M178.3,39.3c0.2,0,0.4,0.1,0.6,0.1c0.2,0,0.5,0,0.8,0c0.3,0,0.5,0,0.8,0c1.1,0,2.1-0.2,3.1-0.6c1-0.4,1.8-1.4,2.5-3
			c0.7-1.6,1.3-3.9,1.7-7.1c0.4-3.1,0.6-7.5,0.6-12.9V1.1h34.6v46.8h-9.7V9h-15.5v7.6c0,6.7-0.3,12.1-1,16.2
			c-0.7,4.1-1.7,7.3-3.1,9.7c-1.4,2.3-3,3.9-5,4.6c-1.9,0.8-4.2,1.2-6.7,1.2c-0.4,0-0.9,0-1.3,0c-0.4,0-0.8-0.1-1.2-0.1
			c-0.4-0.1-0.8-0.2-1.2-0.2V39.3z"/>
		<path d="M227.2,47.9V1.1h9.7v32.4l23-32.4h9.7v46.8H260V15.5l-23,32.4H227.2z"/>
		<path d="M288.4,47.9V1.1h9.7v32.4l23-32.4h9.7v46.8h-9.7V15.5l-23,32.4H288.4z"/>
		<path d="M344.6,32.4c0,2.5,0.8,4.7,2.5,6.4c1.7,1.7,4.3,2.6,7.9,2.6s6.2-0.7,7.9-2.1c1.7-1.4,2.5-3.1,2.5-5.1c0-1.7-0.4-3-1.1-4
			c-0.7-0.9-1.6-1.6-2.7-2c-1-0.4-2.1-0.7-3.2-0.8c-1.1-0.1-2-0.1-2.7-0.1h-7.6v-7.9h7.6c0.8,0,1.7-0.1,2.7-0.2
			c1-0.1,1.9-0.4,2.8-0.8c0.9-0.4,1.6-1.1,2.2-1.9c0.6-0.8,0.9-1.9,0.9-3.2c0-1.6-0.7-3-2.2-4.1c-1.5-1.1-3.9-1.7-7.1-1.7
			c-3.3,0-5.7,0.7-7.3,2.2c-1.6,1.5-2.4,3.4-2.4,5.7h-10.4c0-2.2,0.4-4.2,1.3-6c0.8-1.9,2.1-3.5,3.8-4.9c1.7-1.4,3.8-2.5,6.3-3.3
			c2.5-0.8,5.4-1.2,8.8-1.2c6.7,0,11.6,1.2,14.9,3.6c3.3,2.4,4.9,5.5,4.9,9.3c0,2.2-0.4,3.9-1.3,5.1c-0.9,1.3-1.9,2.2-3,2.9
			c-1.2,0.8-2.7,1.4-4.3,1.7V23c1.9,0.3,3.6,0.9,5,1.7c1.2,0.8,2.4,1.9,3.5,3.3c1.1,1.5,1.6,3.5,1.6,6.1c0,2.1-0.4,4-1.3,5.8
			c-0.9,1.8-2.2,3.4-4,4.7c-1.8,1.3-4,2.4-6.7,3.1c-2.7,0.8-5.8,1.2-9.3,1.2c-3.2,0-6-0.4-8.6-1.1c-2.6-0.7-4.8-1.8-6.6-3.2
			c-1.8-1.4-3.2-3.1-4.2-5.2c-1-2.1-1.5-4.4-1.5-7.1H344.6z"/>
		<path d="M394,47.9V1.1h40.3v46.8h-9.7V9h-20.9v38.9H394z"/>
		<path d="M438.6,47.9V1.1h38.5V9h-28.8v11.5h23.4v7.9h-23.4V40h28.8v7.9H438.6z"/>
		<path d="M481.1,1.1h22.3c2.5,0,4.9,0.3,7,0.8c2.1,0.5,3.9,1.3,5.4,2.4c1.5,1.1,2.7,2.5,3.6,4.3c0.9,1.8,1.3,3.9,1.3,6.5
			c0,2.5-0.4,4.6-1.3,6.4c-0.9,1.8-2.1,3.3-3.6,4.4c-1.5,1.1-3.3,1.9-5.4,2.4c-2.1,0.5-4.4,0.8-7,0.8h-12.6v18.7h-9.7V1.1z
			 M503.4,21.2c2,0,3.6-0.5,4.8-1.5c1.2-1,1.7-2.6,1.7-4.6s-0.6-3.5-1.7-4.6S505.4,9,503.4,9h-12.6v12.2H503.4z"/>
		<path d="M524,47.9V1.1h38.5V9h-28.8v11.5h23.4v7.9h-23.4V40h28.8v7.9H524z"/>
		<path d="M566.4,1.1h22.3c2.5,0,4.9,0.3,7,0.8c2.1,0.5,3.9,1.3,5.4,2.4c1.5,1.1,2.7,2.5,3.6,4.3c0.9,1.8,1.3,3.9,1.3,6.5
			c0,2.5-0.4,4.6-1.3,6.4c-0.9,1.8-2.1,3.3-3.6,4.4c-1.5,1.1-3.3,1.9-5.4,2.4c-2.1,0.5-4.4,0.8-7,0.8h-12.6v18.7h-9.7V1.1z
			 M588.8,21.2c2,0,3.6-0.5,4.8-1.5c1.2-1,1.7-2.6,1.7-4.6s-0.6-3.5-1.7-4.6S590.8,9,588.8,9h-12.6v12.2H588.8z"/>
		<path d="M618.7,1.1h10.8l18,46.8h-10.8L633,37.5h-17.9l-3.7,10.4h-10.8L618.7,1.1z M630.2,29.5l-6.1-17.3l-6.1,17.3H630.2z"/>
		<path d="M687.8,1.1V9h-28.1v11.5H672c2.5,0,4.9,0.3,7,0.8c2.1,0.5,4,1.3,5.6,2.4c1.6,1.1,2.8,2.5,3.7,4.2c0.9,1.7,1.3,3.8,1.3,6.3
			c0,2.4-0.4,4.5-1.3,6.3c-0.9,1.7-2.1,3.1-3.7,4.2c-1.6,1.1-3.4,1.9-5.6,2.4c-2.1,0.5-4.5,0.8-7,0.8h-22V1.1H687.8z M672.3,40
			c2,0,3.6-0.5,4.8-1.4c1.2-0.9,1.7-2.4,1.7-4.4s-0.6-3.5-1.7-4.4s-2.7-1.4-4.8-1.4h-12.6V40H672.3z"/>
		<path d="M715.5,0c3.8,0,7.2,0.6,10.1,1.8c3,1.2,5.4,2.9,7.5,5.1c2,2.2,3.6,4.8,4.6,7.8c1.1,3,1.6,6.3,1.6,9.8
			c0,3.5-0.5,6.8-1.6,9.8c-1.1,3-2.6,5.6-4.6,7.8c-2,2.2-4.5,3.9-7.5,5.1c-3,1.2-6.3,1.8-10.1,1.8s-7.2-0.6-10.1-1.8
			c-3-1.2-5.4-2.9-7.5-5.1c-2-2.2-3.6-4.8-4.6-7.8c-1.1-3-1.6-6.3-1.6-9.8c0-3.5,0.5-6.8,1.6-9.8c1.1-3,2.6-5.6,4.6-7.8
			c2-2.2,4.5-3.9,7.5-5.1C708.4,0.6,711.7,0,715.5,0z M702.6,24.5c0,3.1,0.4,5.7,1.1,7.8c0.7,2.1,1.7,3.9,2.8,5.2
			c1.2,1.3,2.5,2.3,4.1,3s3.2,0.9,4.9,0.9s3.4-0.3,4.9-0.9s2.9-1.6,4.1-3c1.2-1.3,2.1-3.1,2.8-5.2c0.7-2.1,1.1-4.7,1.1-7.8
			c0-3.1-0.4-5.7-1.1-7.8c-0.7-2.1-1.7-3.9-2.8-5.2c-1.2-1.3-2.5-2.3-4.1-3s-3.2-0.9-4.9-0.9s-3.4,0.3-4.9,0.9s-2.9,1.6-4.1,3
			c-1.2,1.3-2.1,3.1-2.8,5.2C702.9,18.8,702.6,21.4,702.6,24.5z"/>
		<path d="M739.3,9V1.1h42.1V9h-16.2v38.9h-9.7V9H739.3z"/>
		<path d="M792.2,1.1H803l18,46.8h-10.8l-3.7-10.4h-17.9L785,47.9h-10.8L792.2,1.1z M803.8,29.5l-6.1-17.3l-6.1,17.3H803.8z"/>
		<path d="M823.6,47.9V1.1h9.7v19.4h20.9V1.1h9.7v46.8h-9.7V28.4h-20.9v19.4H823.6z"/>
		<path d="M868.2,47.9V1.1h9.7v19.4h20.9V1.1h9.7v46.8h-9.7V28.4h-20.9v19.4H868.2z"/>
		<path d="M935.9,0c3.8,0,7.2,0.6,10.1,1.8c3,1.2,5.4,2.9,7.5,5.1c2,2.2,3.6,4.8,4.6,7.8c1.1,3,1.6,6.3,1.6,9.8
			c0,3.5-0.5,6.8-1.6,9.8c-1.1,3-2.6,5.6-4.6,7.8c-2,2.2-4.5,3.9-7.5,5.1c-3,1.2-6.3,1.8-10.1,1.8c-3.8,0-7.2-0.6-10.1-1.8
			c-3-1.2-5.4-2.9-7.5-5.1c-2-2.2-3.6-4.8-4.6-7.8c-1.1-3-1.6-6.3-1.6-9.8c0-3.5,0.5-6.8,1.6-9.8c1.1-3,2.6-5.6,4.6-7.8
			c2-2.2,4.5-3.9,7.5-5.1C928.7,0.6,932.1,0,935.9,0z M922.9,24.5c0,3.1,0.4,5.7,1.1,7.8c0.7,2.1,1.7,3.9,2.8,5.2
			c1.2,1.3,2.5,2.3,4.1,3c1.6,0.6,3.2,0.9,4.9,0.9s3.4-0.3,4.9-0.9s2.9-1.6,4.1-3c1.2-1.3,2.1-3.1,2.8-5.2c0.7-2.1,1.1-4.7,1.1-7.8
			c0-3.1-0.4-5.7-1.1-7.8c-0.7-2.1-1.7-3.9-2.8-5.2c-1.2-1.3-2.5-2.3-4.1-3s-3.2-0.9-4.9-0.9s-3.4,0.3-4.9,0.9
			c-1.6,0.6-2.9,1.6-4.1,3c-1.2,1.3-2.1,3.1-2.8,5.2C923.3,18.8,922.9,21.4,922.9,24.5z"/>
		<path d="M963.3,1.1h35.7V9H973v38.9h-9.7V1.1z"/>
		<path d="M1022.7,0c3.8,0,7.2,0.6,10.1,1.8c3,1.2,5.4,2.9,7.5,5.1c2,2.2,3.6,4.8,4.6,7.8c1.1,3,1.6,6.3,1.6,9.8
			c0,3.5-0.5,6.8-1.6,9.8c-1.1,3-2.6,5.6-4.6,7.8c-2,2.2-4.5,3.9-7.5,5.1c-3,1.2-6.3,1.8-10.1,1.8c-3.8,0-7.2-0.6-10.1-1.8
			c-3-1.2-5.4-2.9-7.5-5.1c-2-2.2-3.6-4.8-4.6-7.8c-1.1-3-1.6-6.3-1.6-9.8c0-3.5,0.5-6.8,1.6-9.8c1.1-3,2.6-5.6,4.6-7.8
			c2-2.2,4.5-3.9,7.5-5.1C1015.5,0.6,1018.9,0,1022.7,0z M1009.7,24.5c0,3.1,0.4,5.7,1.1,7.8c0.7,2.1,1.7,3.9,2.8,5.2
			c1.2,1.3,2.5,2.3,4.1,3c1.6,0.6,3.2,0.9,4.9,0.9s3.4-0.3,4.9-0.9s2.9-1.6,4.1-3c1.2-1.3,2.1-3.1,2.8-5.2c0.7-2.1,1.1-4.7,1.1-7.8
			c0-3.1-0.4-5.7-1.1-7.8c-0.7-2.1-1.7-3.9-2.8-5.2c-1.2-1.3-2.5-2.3-4.1-3s-3.2-0.9-4.9-0.9s-3.4,0.3-4.9,0.9
			c-1.6,0.6-2.9,1.6-4.1,3c-1.2,1.3-2.1,3.1-2.8,5.2C1010.1,18.8,1009.7,21.4,1009.7,24.5z"/>
		<path d="M1064.5,47.9V1.1h40.3v46.8h-9.7V9h-20.9v38.9H1064.5z"/>
		<path d="M1108,39.3c0.2,0,0.4,0.1,0.6,0.1c0.2,0,0.5,0,0.8,0s0.5,0,0.8,0c1.1,0,2.1-0.2,3.1-0.6c1-0.4,1.8-1.4,2.5-3
			c0.7-1.6,1.3-3.9,1.7-7.1c0.4-3.1,0.6-7.5,0.6-12.9V1.1h34.6v46.8h-9.7V9h-15.5v7.6c0,6.7-0.3,12.1-1,16.2
			c-0.7,4.1-1.7,7.3-3.1,9.7s-3,3.9-5,4.6c-1.9,0.8-4.2,1.2-6.7,1.2c-0.4,0-0.9,0-1.3,0c-0.4,0-0.8-0.1-1.2-0.1
			c-0.4-0.1-0.8-0.2-1.2-0.2V39.3z"/>
		<path d="M1173.2,1.1h10.8l18,46.8h-10.8l-3.7-10.4h-17.9l-3.7,10.4h-10.8L1173.2,1.1z M1184.7,29.5l-6.1-17.3l-6.1,17.3H1184.7z"
			/>
		<path d="M1223.6,0c3.7,0,6.9,0.5,9.7,1.4c2.8,1,5.1,2.3,6.9,3.9c1.8,1.7,3.2,3.6,4.2,5.7c1,2.2,1.5,4.5,1.6,6.9h-10.8
			c-0.4-3.3-1.5-5.8-3.5-7.7c-1.9-1.8-4.6-2.8-8.1-2.8c-1.7,0-3.3,0.3-4.9,0.9c-1.5,0.6-2.8,1.5-4,2.9c-1.2,1.3-2.1,3.1-2.7,5.2
			c-0.7,2.1-1,4.8-1,8s0.3,5.8,1,8c0.7,2.1,1.6,3.9,2.7,5.2c1.2,1.3,2.5,2.3,4,2.9c1.5,0.6,3.1,0.9,4.9,0.9c7,0,10.8-3.5,11.5-10.4
			h10.8c-0.1,2.4-0.6,4.8-1.5,6.9c-0.9,2.2-2.3,4.1-4.2,5.7c-1.8,1.7-4.2,3-6.9,3.9c-2.8,1-6,1.4-9.7,1.4c-3.9,0-7.3-0.6-10.2-1.8
			c-2.9-1.2-5.3-2.9-7.3-5.1c-2-2.2-3.4-4.8-4.4-7.8c-1-3-1.5-6.3-1.5-9.8c0-3.5,0.5-6.8,1.5-9.8c1-3,2.5-5.6,4.4-7.8
			c2-2.2,4.4-3.9,7.3-5.1C1216.4,0.6,1219.7,0,1223.6,0z"/>
		<path d="M1246.7,9V1.1h42.1V9h-16.2v38.9h-9.7V9H1246.7z"/>
		<path d="M1292.4,47.9V1.1h9.7v32.4l23-32.4h9.7v46.8h-9.7V15.5l-23,32.4H1292.4z"/>
		<path d="M1349,1.1v22.3L1368,1.1h13l-17.6,19.1l18.7,27.7h-12.6l-12.7-20.7l-7.8,8.4v12.2h-9.7V1.1H1349z"/>
		<path d="M1400.4,1.1h10.8l18,46.8h-10.8l-3.7-10.4h-17.9l-3.7,10.4h-10.8L1400.4,1.1z M1412,29.5l-6.1-17.3l-6.1,17.3H1412z"/>
	</g>
</g>
</svg>
